<?xml version="1.0" standalone="no"?><!DOCTYPE svg PUBLIC "-//W3C//DTD SVG 1.1//EN" "http://www.w3.org/Graphics/SVG/1.1/DTD/svg11.dtd"><svg t="1488184651439" class="icon" style="" viewBox="0 0 1024 1024" version="1.1" xmlns="http://www.w3.org/2000/svg" p-id="1031" xmlns:xlink="http://www.w3.org/1999/xlink" width="128" height="128"><defs><style type="text/css"></style></defs><path d="M662.7 858H213c-7.2 0-13-5.8-13-13V32.7c0-7.2 5.8-13 13-13h449.7c7.2 0 13 5.8 13 13v369.8c0 7.2-5.8 13-13 13s-13-5.8-13-13V45.7H226V832h423.7V470.2c0-7.2 5.8-13 13-13s13 5.8 13 13V845c0 7.2-5.8 13-13 13z" fill="#d81e06" p-id="1032"></path><path d="M214.7 142.3c-7.2 0-13-5.8-13-13s5.8-13 13-13c45.1 0 81.9-34.3 81.9-76.4 0-2-0.1-4.1-0.3-6.1-0.6-7.2 4.7-13.4 11.9-14 7.2-0.6 13.4 4.7 14 11.9 0.2 2.7 0.3 5.5 0.3 8.3 0.1 56.4-48.3 102.3-107.8 102.3zM660.9 142.3C601.4 142.3 553 96.4 553 39.9c0-2.7 0.1-5.5 0.3-8.2 0.6-7.2 6.9-12.5 14-11.9 7.2 0.6 12.5 6.9 11.9 14-0.2 2-0.3 4.1-0.3 6.1 0 42.1 36.7 76.4 81.9 76.4 7.2 0 13 5.8 13 13s-5.7 13-12.9 13zM309.3 858.1h-1.1c-7.2-0.6-12.5-6.9-11.9-14 0.2-2 0.3-4.1 0.3-6.1 0-42.1-36.7-76.4-81.9-76.4-7.2 0-13-5.8-13-13s5.8-13 13-13c59.5 0 107.9 45.9 107.9 102.4 0 2.8-0.1 5.5-0.3 8.3-0.6 6.6-6.3 11.8-13 11.8zM566.4 858c-6.7 0-12.4-5.1-12.9-11.9-0.2-2.7-0.3-5.5-0.3-8.2 0-56.5 48.4-102.4 107.9-102.4 7.2 0 13 5.8 13 13s-5.8 13-13 13c-45.1 0-81.9 34.3-81.9 76.4 0 2 0.1 4.1 0.3 6.1 0.6 7.2-4.7 13.4-11.9 14h-1.2zM569.6 413.7c-5.6 0-10.8-3.7-12.5-9.4-7.3-25.3-23-48.1-44-64.2-21.8-16.6-47.8-25.4-75.2-25.4-27.5 0-53.5 8.8-75.2 25.4-21.1 16.1-36.7 38.9-44 64.2-2 6.9-9.2 10.9-16.1 8.9-6.9-2-10.9-9.2-8.9-16.1 8.9-30.6 27.8-58.2 53.3-77.7 26.3-20.1 57.8-30.7 91-30.7s64.7 10.6 91 30.7c25.5 19.4 44.4 47 53.3 77.7 2 6.9-2 14.1-8.9 16.1-1.4 0.4-2.6 0.5-3.8 0.5zM437.8 589.1c-34.1 0-67.5-11.7-94-33-26.1-21-44.7-50.4-52.2-82.9-1.6-7 2.7-14 9.7-15.6 7-1.6 14 2.7 15.6 9.7 6.3 26.8 21.6 51.1 43.2 68.5 22.2 17.9 49.1 27.3 77.7 27.3s55.5-9.4 77.7-27.3c21.6-17.4 37-41.7 43.2-68.5 1.6-7 8.6-11.3 15.6-9.7 7 1.6 11.3 8.6 9.7 15.6-7.6 32.4-26.1 61.9-52.2 82.9-26.5 21.2-59.9 33-94 33z" fill="#d81e06" p-id="1033"></path><path d="M737.8 933.2H288.1c-7.2 0-13-5.8-13-13s5.8-13 13-13h436.7V557.6c0-7.2 5.8-13 13-13s13 5.8 13 13v362.6c0 7.2-5.8 13-13 13zM737.8 496.4c-7.2 0-13-5.8-13-13V107.9c0-7.2 5.8-13 13-13s13 5.8 13 13v375.5c0 7.1-5.8 13-13 13z" fill="#d81e06" p-id="1034"></path><path d="M813 1008.4H363.3c-7.2 0-13-5.8-13-13s5.8-13 13-13H800V183c0-7.2 5.8-13 13-13s13 5.8 13 13v812.3c0 7.2-5.8 13.1-13 13.1z" fill="#d81e06" p-id="1035"></path><path d="M660.9 483.2H214.7c-7.2 0-13-5.8-13-13v-67.6c0-7.2 5.8-13 13-13H566c7.2 0 13 5.8 13 13s-5.8 13-13 13H227.7v41.6h433.2c7.2 0 13 5.8 13 13s-5.8 13-13 13z" fill="#d81e06" p-id="1036"></path><path d="M660.9 415.6h-94.8c-7.2 0-13-5.8-13-13s5.8-13 13-13h94.8c7.2 0 13 5.8 13 13s-5.8 13-13 13z" fill="#d81e06" p-id="1037"></path><path d="M813 589.1c-3.6 0-7.2-1.5-9.8-4.4l-151-172.3c-4.7-5.4-4.2-13.6 1.2-18.3 5.4-4.7 13.6-4.2 18.3 1.2l151 172.3c4.7 5.4 4.2 13.6-1.2 18.3-2.4 2.1-5.4 3.2-8.5 3.2z" fill="#d81e06" p-id="1038"></path><path d="M662 416.8c-3.6 0-7.2-1.5-9.8-4.4l-1.1-1.2c-4.7-5.4-4.2-13.6 1.2-18.3 5.4-4.7 13.6-4.2 18.3 1.2l1.1 1.2c4.7 5.4 4.2 13.6-1.2 18.3-2.4 2.1-5.5 3.2-8.5 3.2zM813 656.1c-3.6 0-7.2-1.5-9.8-4.4l-152-172.9c-4.7-5.4-4.2-13.6 1.2-18.3 5.4-4.7 13.6-4.2 18.3 1.2l152.1 172.9c4.7 5.4 4.2 13.6-1.2 18.3-2.5 2.1-5.5 3.2-8.6 3.2z" fill="#d81e06" p-id="1039"></path></svg>